<svg width="555" height="495" viewBox="0 0 555 495" fill="none" xmlns="http://www.w3.org/2000/svg">
<circle cx="405" cy="150" r="147.5" fill="black" stroke="#2F2727" stroke-width="5"/>
<path d="M335.952 133.608C334.816 134.04 333.936 134.712 333.312 135.624C332.688 136.52 332.376 137.624 332.376 138.936C332.376 139.528 332.432 139.944 332.544 140.184C332.656 140.408 332.712 140.536 332.712 140.568C331.848 140.568 331.2 140.392 330.768 140.04C330.352 139.672 330.144 139.072 330.144 138.24C330.144 137.216 330.56 136.224 331.392 135.264C332.24 134.288 333.32 133.504 334.632 132.912C335.944 132.304 337.256 132 338.568 132C338.792 132 339.112 132.016 339.528 132.048L339.744 146.808L344.784 132.12H347.832L348.048 146.808L353.088 132.12H354.768L348.096 150H344.64L344.352 137.784L339.792 150H336.336L335.952 133.608ZM356.518 150.144C355.334 150.144 354.414 149.84 353.758 149.232C353.102 148.608 352.774 147.64 352.774 146.328C352.774 145.224 352.99 144.008 353.422 142.68C353.854 141.352 354.558 140.208 355.534 139.248C356.51 138.272 357.75 137.784 359.254 137.784C361.014 137.784 361.894 138.552 361.894 140.088C361.894 140.984 361.638 141.808 361.126 142.56C360.614 143.312 359.934 143.92 359.086 144.384C358.238 144.832 357.334 145.088 356.374 145.152C356.342 145.632 356.326 145.952 356.326 146.112C356.326 146.896 356.462 147.432 356.734 147.72C357.006 147.992 357.446 148.128 358.054 148.128C358.918 148.128 359.654 147.928 360.262 147.528C360.886 147.128 361.566 146.52 362.302 145.704H363.118C361.342 148.664 359.142 150.144 356.518 150.144ZM356.566 144C357.158 143.968 357.718 143.76 358.246 143.376C358.79 142.992 359.222 142.504 359.542 141.912C359.878 141.32 360.046 140.696 360.046 140.04C360.046 139.384 359.846 139.056 359.446 139.056C358.87 139.056 358.302 139.56 357.742 140.568C357.198 141.576 356.806 142.72 356.566 144ZM365.489 150.144C364.401 150.144 363.569 149.88 362.993 149.352C362.417 148.808 362.129 148.048 362.129 147.072C362.129 146.592 362.185 146.136 362.297 145.704L364.865 133.68L368.417 133.2L367.265 138.6C367.713 138.328 368.081 138.152 368.369 138.072C368.657 137.976 368.945 137.928 369.233 137.928C371.121 137.928 372.065 139.296 372.065 142.032C372.065 143.136 371.849 144.32 371.417 145.584C371.001 146.832 370.297 147.904 369.305 148.8C368.329 149.696 367.057 150.144 365.489 150.144ZM366.833 147.816C367.329 147.816 367.793 147.512 368.225 146.904C368.657 146.28 369.001 145.512 369.257 144.6C369.513 143.672 369.641 142.784 369.641 141.936C369.641 141.296 369.529 140.752 369.305 140.304C369.081 139.856 368.769 139.632 368.369 139.632C368.129 139.632 367.857 139.672 367.553 139.752C367.265 139.816 367.065 139.92 366.953 140.064L365.633 146.16C365.585 146.352 365.561 146.536 365.561 146.712C365.561 147.448 365.985 147.816 366.833 147.816ZM378.313 132H380.041L374.953 156H373.225L378.313 132ZM389.246 150.312C388.286 150.312 387.31 149.888 386.318 149.04L386.126 150H382.67L385.934 134.736L389.486 134.256L386.606 147.72C387.054 148.04 387.51 148.2 387.974 148.2C388.886 148.2 389.686 147.672 390.374 146.616C391.078 145.56 391.622 144.216 392.006 142.584C392.39 140.952 392.582 139.304 392.582 137.64C392.582 136.072 392.27 134.928 391.646 134.208C391.038 133.472 390.182 133.104 389.078 133.104C387.878 133.104 386.798 133.344 385.838 133.824C384.894 134.288 384.15 134.96 383.606 135.84C383.062 136.72 382.79 137.752 382.79 138.936C382.79 139.528 382.846 139.944 382.958 140.184C383.07 140.408 383.126 140.536 383.126 140.568C382.294 140.568 381.654 140.392 381.206 140.04C380.774 139.688 380.558 139.12 380.558 138.336C380.558 137.248 380.966 136.216 381.782 135.24C382.598 134.264 383.686 133.48 385.046 132.888C386.422 132.296 387.902 132 389.486 132C391.678 132 393.294 132.648 394.334 133.944C395.374 135.24 395.894 136.896 395.894 138.912C395.894 140.736 395.582 142.536 394.958 144.312C394.35 146.072 393.534 147.512 392.51 148.632C391.486 149.752 390.398 150.312 389.246 150.312ZM399.76 150.144C398.576 150.144 397.656 149.84 397 149.232C396.344 148.608 396.016 147.64 396.016 146.328C396.016 145.224 396.232 144.008 396.664 142.68C397.096 141.352 397.8 140.208 398.776 139.248C399.752 138.272 400.992 137.784 402.496 137.784C404.256 137.784 405.136 138.552 405.136 140.088C405.136 140.984 404.88 141.808 404.368 142.56C403.856 143.312 403.176 143.92 402.328 144.384C401.48 144.832 400.576 145.088 399.616 145.152C399.584 145.632 399.568 145.952 399.568 146.112C399.568 146.896 399.704 147.432 399.976 147.72C400.248 147.992 400.688 148.128 401.296 148.128C402.16 148.128 402.896 147.928 403.504 147.528C404.128 147.128 404.808 146.52 405.544 145.704H406.36C404.584 148.664 402.384 150.144 399.76 150.144ZM399.808 144C400.4 143.968 400.96 143.76 401.488 143.376C402.032 142.992 402.464 142.504 402.784 141.912C403.12 141.32 403.288 140.696 403.288 140.04C403.288 139.384 403.088 139.056 402.688 139.056C402.112 139.056 401.544 139.56 400.984 140.568C400.44 141.576 400.048 142.72 399.808 144ZM408.275 150.144C407.507 150.144 406.859 150 406.331 149.712C405.803 149.408 405.411 149.024 405.155 148.56C404.899 148.08 404.771 147.584 404.771 147.072C404.771 146.544 404.899 146.088 405.155 145.704C405.395 145.304 405.691 145.016 406.043 144.84C406.667 143.72 407.211 142.592 407.675 141.456C408.139 140.304 408.579 139.064 408.995 137.736L412.547 137.256C412.627 139.304 412.763 141.52 412.955 143.904C413.035 144.864 413.075 145.56 413.075 145.992C413.075 146.36 413.043 146.664 412.979 146.904C413.731 146.472 414.307 146.072 414.707 145.704H415.715C414.691 146.888 413.467 147.888 412.043 148.704C411.579 149.2 411.003 149.568 410.315 149.808C409.643 150.032 408.963 150.144 408.275 150.144ZM407.507 148.248C408.099 148.248 408.595 148.072 408.995 147.72C409.395 147.368 409.595 146.8 409.595 146.016C409.595 145.536 409.547 144.864 409.451 144C409.291 142.176 409.187 140.952 409.139 140.328C408.755 141.592 408.107 143.104 407.195 144.864C407.563 145.056 407.747 145.336 407.747 145.704C407.747 146.008 407.643 146.28 407.435 146.52C407.243 146.76 406.995 146.88 406.691 146.88C406.355 146.88 406.139 146.776 406.043 146.568C406.043 147.144 406.155 147.568 406.379 147.84C406.619 148.112 406.995 148.248 407.507 148.248ZM423.727 150.144C422.735 150.144 421.983 149.912 421.471 149.448C420.959 148.968 420.703 148.288 420.703 147.408C420.703 147.024 420.751 146.608 420.847 146.16L421.039 145.224C421.103 144.952 421.135 144.656 421.135 144.336C421.135 143.568 420.847 143.184 420.271 143.184C420.015 143.184 419.743 143.256 419.455 143.4C419.183 143.544 418.863 143.768 418.495 144.072L417.247 150H413.791L417.271 133.68L420.823 133.2L419.023 141.648L423.655 138H426.031L421.231 141.336C421.471 141.272 421.735 141.24 422.023 141.24C422.887 141.24 423.543 141.504 423.991 142.032C424.439 142.56 424.663 143.232 424.663 144.048C424.663 144.384 424.631 144.688 424.567 144.96L424.303 146.16C424.223 146.448 424.183 146.704 424.183 146.928C424.183 147.52 424.495 147.816 425.119 147.816C425.599 147.816 425.983 147.648 426.271 147.312C426.559 146.96 426.847 146.424 427.135 145.704H428.143C427.151 148.664 425.679 150.144 423.727 150.144ZM429.501 150.144C428.733 150.144 428.109 149.904 427.629 149.424C427.165 148.944 426.933 148.224 426.933 147.264C426.933 146.864 426.997 146.344 427.125 145.704L428.565 138.96H427.773L427.965 138H428.757L429.477 134.688L433.029 134.208L432.213 138H433.653L433.461 138.96H432.021L430.485 146.16C430.421 146.4 430.389 146.656 430.389 146.928C430.389 147.248 430.461 147.48 430.605 147.624C430.765 147.752 431.021 147.816 431.373 147.816C431.837 147.816 432.269 147.624 432.669 147.24C433.069 146.84 433.357 146.328 433.533 145.704H434.541C433.949 147.432 433.189 148.608 432.261 149.232C431.333 149.84 430.413 150.144 429.501 150.144ZM437.027 150.096C435.843 150.096 434.907 149.792 434.219 149.184C433.531 148.576 433.187 147.616 433.187 146.304C433.187 145.216 433.411 144.008 433.859 142.68C434.307 141.352 435.027 140.208 436.019 139.248C437.011 138.272 438.259 137.784 439.763 137.784C441.811 137.784 442.835 139.064 442.835 141.624V141.648C442.883 141.664 442.971 141.672 443.099 141.672C443.627 141.672 444.235 141.536 444.923 141.264C445.611 140.976 446.235 140.632 446.795 140.232L447.011 140.88C446.547 141.376 445.939 141.8 445.187 142.152C444.451 142.488 443.643 142.728 442.763 142.872C442.635 144.328 442.307 145.6 441.779 146.688C441.251 147.776 440.571 148.616 439.739 149.208C438.907 149.8 438.003 150.096 437.027 150.096ZM437.987 147.936C438.371 147.936 438.755 147.72 439.139 147.288C439.523 146.84 439.859 146.24 440.147 145.488C440.435 144.72 440.643 143.872 440.771 142.944C440.339 142.848 440.123 142.512 440.123 141.936C440.123 141.28 440.371 140.848 440.867 140.64C440.835 140.112 440.755 139.752 440.627 139.56C440.499 139.352 440.275 139.248 439.955 139.248C439.427 139.248 438.915 139.632 438.419 140.4C437.923 141.168 437.523 142.088 437.219 143.16C436.915 144.232 436.763 145.176 436.763 145.992C436.763 146.76 436.851 147.28 437.027 147.552C437.203 147.808 437.523 147.936 437.987 147.936ZM445.894 137.112H449.35L448.966 138.912C449.766 138.224 450.702 137.88 451.774 137.88C452.67 137.88 453.382 138.176 453.91 138.768C454.438 139.36 454.702 140.328 454.702 141.672C454.702 142.936 454.518 144.216 454.15 145.512C453.782 146.792 453.158 147.888 452.278 148.8C451.398 149.696 450.238 150.144 448.798 150.144C447.774 150.144 447.094 149.856 446.758 149.28L445.51 155.136L441.886 156L445.894 137.112ZM448.054 148.056C448.822 148.056 449.454 147.696 449.95 146.976C450.462 146.256 450.83 145.4 451.054 144.408C451.294 143.4 451.414 142.464 451.414 141.6C451.414 140.272 451.014 139.608 450.214 139.608C449.926 139.608 449.63 139.712 449.326 139.92C449.038 140.128 448.782 140.416 448.558 140.784L447.142 147.504C447.27 147.872 447.574 148.056 448.054 148.056ZM465.732 152.736C465.14 152.736 464.62 152.688 464.172 152.592C463.724 152.496 463.332 152.264 462.996 151.896C462.676 151.528 462.516 150.96 462.516 150.192C462.516 149.12 462.836 147.68 463.476 145.872C464.132 144.064 464.988 142.248 466.044 140.424C465.244 140.472 464.612 140.592 464.148 140.784C463.684 140.976 463.38 141.272 463.236 141.672C463.3 141.672 463.364 141.752 463.428 141.912C463.508 142.072 463.548 142.24 463.548 142.416C463.548 142.704 463.42 142.936 463.164 143.112C462.908 143.272 462.588 143.352 462.204 143.352C461.756 143.352 461.396 143.232 461.124 142.992C460.852 142.752 460.716 142.408 460.716 141.96C460.716 141.416 460.924 140.92 461.34 140.472C461.772 140.024 462.364 139.672 463.116 139.416C463.868 139.144 464.7 139.008 465.612 139.008C465.948 139.008 466.364 139.032 466.86 139.08C468.172 137 469.556 135.304 471.012 133.992C472.484 132.664 473.884 132 475.212 132C475.98 132 476.612 132.112 477.108 132.336L473.34 150H469.884L471.732 141.288C471.14 141.016 470.596 140.816 470.1 140.688C469.604 140.56 469.076 140.472 468.516 140.424C467.604 142.392 466.852 144.408 466.26 146.472C465.684 148.52 465.396 150.16 465.396 151.392C465.396 152 465.508 152.448 465.732 152.736ZM473.34 133.704C472.652 134.072 471.932 134.76 471.18 135.768C470.444 136.76 469.724 137.968 469.02 139.392C470.172 139.616 471.148 139.896 471.948 140.232L473.34 133.704ZM478.355 137.112H481.811L481.427 138.912C482.227 138.224 483.163 137.88 484.235 137.88C485.131 137.88 485.843 138.176 486.371 138.768C486.899 139.36 487.163 140.328 487.163 141.672C487.163 142.936 486.979 144.216 486.611 145.512C486.243 146.792 485.619 147.888 484.739 148.8C483.859 149.696 482.699 150.144 481.259 150.144C480.235 150.144 479.555 149.856 479.219 149.28L477.971 155.136L474.347 156L478.355 137.112ZM480.515 148.056C481.283 148.056 481.915 147.696 482.411 146.976C482.923 146.256 483.291 145.4 483.515 144.408C483.755 143.4 483.875 142.464 483.875 141.6C483.875 140.272 483.475 139.608 482.675 139.608C482.387 139.608 482.091 139.712 481.787 139.92C481.499 140.128 481.243 140.416 481.019 140.784L479.603 147.504C479.731 147.872 480.035 148.056 480.515 148.056ZM489.582 137.112H493.038L492.654 138.912C493.454 138.224 494.39 137.88 495.462 137.88C496.358 137.88 497.07 138.176 497.598 138.768C498.126 139.36 498.39 140.328 498.39 141.672C498.39 142.936 498.206 144.216 497.838 145.512C497.47 146.792 496.846 147.888 495.966 148.8C495.086 149.696 493.926 150.144 492.486 150.144C491.462 150.144 490.782 149.856 490.446 149.28L489.198 155.136L485.574 156L489.582 137.112ZM491.742 148.056C492.51 148.056 493.142 147.696 493.638 146.976C494.15 146.256 494.518 145.4 494.742 144.408C494.982 143.4 495.102 142.464 495.102 141.6C495.102 140.272 494.702 139.608 493.902 139.608C493.614 139.608 493.318 139.712 493.014 139.92C492.726 140.128 492.47 140.416 492.246 140.784L490.83 147.504C490.958 147.872 491.262 148.056 491.742 148.056Z" fill="#BA6969"/>
<circle cx="300" cy="345" r="147.5" fill="black" stroke="#BB9F9F" stroke-width="5"/>
<path d="M297.5 156C297.5 237.462 231.462 303.5 150 303.5C68.538 303.5 2.5 237.462 2.5 156C2.5 74.538 68.538 8.5 150 8.5C231.462 8.5 297.5 74.538 297.5 156Z" fill="black" stroke="#641E1E" stroke-width="5"/>
<path d="M81.592 135.144C80.616 135.144 79.896 134.888 79.432 134.376C78.984 133.848 78.76 133.2 78.76 132.432C78.76 132.096 78.8 131.72 78.88 131.304C78.96 130.872 79.04 130.456 79.12 130.056C79.216 129.656 79.28 129.4 79.312 129.288C79.44 128.728 79.56 128.176 79.672 127.632C79.784 127.088 79.84 126.648 79.84 126.312C79.84 125.496 79.552 125.088 78.976 125.088C78.56 125.088 78.192 125.296 77.872 125.712C77.552 126.112 77.296 126.64 77.104 127.296L75.472 135H72.016L73.768 126.72C73.816 126.528 73.84 126.328 73.84 126.12C73.84 125.416 73.6 125.064 73.12 125.064C72.672 125.064 72.28 125.272 71.944 125.688C71.624 126.088 71.368 126.624 71.176 127.296L69.544 135H66.088L68.632 123H72.088L71.824 124.248C72.64 123.336 73.616 122.88 74.752 122.88C76.16 122.88 76.984 123.568 77.224 124.944C78.104 123.584 79.216 122.904 80.56 122.904C81.376 122.904 82.024 123.128 82.504 123.576C82.984 124.024 83.224 124.704 83.224 125.616C83.224 126.08 83.168 126.6 83.056 127.176C82.944 127.736 82.784 128.424 82.576 129.24C82.448 129.736 82.328 130.224 82.216 130.704C82.12 131.168 82.072 131.536 82.072 131.808C82.072 132.128 82.144 132.376 82.288 132.552C82.432 132.728 82.68 132.816 83.032 132.816C83.512 132.816 83.896 132.648 84.184 132.312C84.472 131.96 84.76 131.424 85.048 130.704H86.056C85.464 132.464 84.776 133.648 83.992 134.256C83.224 134.848 82.424 135.144 81.592 135.144ZM88.5509 135.096C87.3669 135.096 86.4309 134.792 85.7429 134.184C85.0549 133.576 84.7109 132.616 84.7109 131.304C84.7109 130.216 84.9349 129.008 85.3829 127.68C85.8309 126.352 86.5509 125.208 87.5429 124.248C88.5349 123.272 89.7829 122.784 91.2869 122.784C93.3349 122.784 94.3589 124.064 94.3589 126.624V126.648C94.4069 126.664 94.4949 126.672 94.6229 126.672C95.1509 126.672 95.7589 126.536 96.4469 126.264C97.1349 125.976 97.7589 125.632 98.3189 125.232L98.5349 125.88C98.0709 126.376 97.4629 126.8 96.7109 127.152C95.9749 127.488 95.1669 127.728 94.2869 127.872C94.1589 129.328 93.8309 130.6 93.3029 131.688C92.7749 132.776 92.0949 133.616 91.2629 134.208C90.4309 134.8 89.5269 135.096 88.5509 135.096ZM89.5109 132.936C89.8949 132.936 90.2789 132.72 90.6629 132.288C91.0469 131.84 91.3829 131.24 91.6709 130.488C91.9589 129.72 92.1669 128.872 92.2949 127.944C91.8629 127.848 91.6469 127.512 91.6469 126.936C91.6469 126.28 91.8949 125.848 92.3909 125.64C92.3589 125.112 92.2789 124.752 92.1509 124.56C92.0229 124.352 91.7989 124.248 91.4789 124.248C90.9509 124.248 90.4389 124.632 89.9429 125.4C89.4469 126.168 89.0469 127.088 88.7429 128.16C88.4389 129.232 88.2869 130.176 88.2869 130.992C88.2869 131.76 88.3749 132.28 88.5509 132.552C88.7269 132.808 89.0469 132.936 89.5109 132.936ZM98.7858 135.144C97.6978 135.144 96.8658 134.88 96.2898 134.352C95.7138 133.808 95.4257 133.048 95.4257 132.072C95.4257 131.592 95.4817 131.136 95.5938 130.704L98.1618 118.68L101.714 118.2L100.562 123.6C101.01 123.328 101.378 123.152 101.666 123.072C101.954 122.976 102.242 122.928 102.53 122.928C104.418 122.928 105.362 124.296 105.362 127.032C105.362 128.136 105.146 129.32 104.714 130.584C104.298 131.832 103.594 132.904 102.602 133.8C101.626 134.696 100.354 135.144 98.7858 135.144ZM100.13 132.816C100.626 132.816 101.09 132.512 101.522 131.904C101.954 131.28 102.298 130.512 102.554 129.6C102.81 128.672 102.938 127.784 102.938 126.936C102.938 126.296 102.826 125.752 102.602 125.304C102.378 124.856 102.066 124.632 101.666 124.632C101.426 124.632 101.154 124.672 100.85 124.752C100.562 124.816 100.362 124.92 100.25 125.064L98.9298 131.16C98.8818 131.352 98.8578 131.536 98.8578 131.712C98.8578 132.448 99.2818 132.816 100.13 132.816ZM110.266 121.704C109.738 121.704 109.29 121.52 108.922 121.152C108.554 120.784 108.37 120.336 108.37 119.808C108.37 119.28 108.554 118.832 108.922 118.464C109.29 118.08 109.738 117.888 110.266 117.888C110.794 117.888 111.242 118.08 111.61 118.464C111.994 118.832 112.186 119.28 112.186 119.808C112.186 120.336 111.994 120.784 111.61 121.152C111.242 121.52 110.794 121.704 110.266 121.704ZM108.634 135.144C107.866 135.144 107.242 134.904 106.762 134.424C106.298 133.944 106.066 133.224 106.066 132.264C106.066 131.864 106.13 131.344 106.258 130.704L107.89 123H111.346L109.618 131.16C109.554 131.4 109.522 131.656 109.522 131.928C109.522 132.248 109.594 132.48 109.738 132.624C109.898 132.752 110.154 132.816 110.506 132.816C110.97 132.816 111.402 132.624 111.802 132.24C112.202 131.84 112.49 131.328 112.666 130.704H113.674C113.082 132.432 112.322 133.608 111.394 134.232C110.466 134.84 109.546 135.144 108.634 135.144ZM115.032 135.144C114.264 135.144 113.64 134.904 113.16 134.424C112.696 133.944 112.464 133.224 112.464 132.264C112.464 131.864 112.528 131.344 112.656 130.704L115.224 118.68L118.776 118.2L116.016 131.16C115.952 131.4 115.92 131.656 115.92 131.928C115.92 132.248 115.992 132.48 116.136 132.624C116.296 132.752 116.552 132.816 116.904 132.816C117.368 132.816 117.8 132.624 118.2 132.24C118.6 131.84 118.888 131.328 119.064 130.704H120.072C119.48 132.432 118.72 133.608 117.792 134.232C116.864 134.84 115.944 135.144 115.032 135.144ZM122.439 135.144C121.271 135.144 120.359 134.84 119.703 134.232C119.047 133.608 118.719 132.64 118.719 131.328C118.719 130.224 118.935 129.008 119.367 127.68C119.799 126.352 120.503 125.208 121.479 124.248C122.455 123.272 123.695 122.784 125.199 122.784C126.959 122.784 127.839 123.552 127.839 125.088C127.839 125.984 127.583 126.808 127.071 127.56C126.559 128.312 125.879 128.92 125.031 129.384C124.183 129.832 123.279 130.088 122.319 130.152C122.287 130.504 122.271 130.744 122.271 130.872C122.271 132.2 122.767 132.864 123.759 132.864C124.207 132.864 124.687 132.744 125.199 132.504C125.711 132.264 126.175 131.96 126.591 131.592C126.159 133.96 124.775 135.144 122.439 135.144ZM122.487 129C123.095 128.984 123.663 128.784 124.191 128.4C124.735 128.016 125.167 127.528 125.487 126.936C125.823 126.328 125.991 125.696 125.991 125.04C125.991 124.384 125.791 124.056 125.391 124.056C124.831 124.056 124.271 124.568 123.711 125.592C123.167 126.6 122.759 127.736 122.487 129ZM135.927 135.144C135.015 135.144 134.255 134.832 133.647 134.208C133.039 133.584 132.735 132.608 132.735 131.28C132.735 130.096 132.967 128.856 133.431 127.56C133.911 126.248 134.615 125.144 135.543 124.248C136.487 123.336 137.607 122.88 138.903 122.88C139.559 122.88 140.047 122.992 140.367 123.216C140.687 123.44 140.847 123.736 140.847 124.104V124.2L142.023 118.68L145.575 118.2L142.815 131.16C142.751 131.4 142.719 131.656 142.719 131.928C142.719 132.248 142.791 132.48 142.935 132.624C143.095 132.752 143.351 132.816 143.703 132.816C144.151 132.816 144.535 132.624 144.855 132.24C145.191 131.856 145.455 131.344 145.647 130.704H146.655C145.679 133.568 144.071 135 141.831 135C141.175 135 140.639 134.824 140.223 134.472C139.823 134.12 139.575 133.608 139.479 132.936C139.063 133.576 138.559 134.104 137.967 134.52C137.391 134.936 136.711 135.144 135.927 135.144ZM137.487 132.816C137.871 132.816 138.255 132.64 138.639 132.288C139.039 131.936 139.311 131.448 139.455 130.824V130.704L140.631 125.208C140.487 124.648 140.159 124.368 139.647 124.368C139.007 124.368 138.431 124.744 137.919 125.496C137.407 126.232 137.007 127.128 136.719 128.184C136.431 129.224 136.287 130.144 136.287 130.944C136.287 131.744 136.399 132.256 136.623 132.48C136.863 132.704 137.151 132.816 137.487 132.816ZM149.088 135.144C147.904 135.144 146.984 134.84 146.328 134.232C145.672 133.608 145.344 132.64 145.344 131.328C145.344 130.224 145.56 129.008 145.992 127.68C146.424 126.352 147.128 125.208 148.104 124.248C149.08 123.272 150.32 122.784 151.824 122.784C153.584 122.784 154.464 123.552 154.464 125.088C154.464 125.984 154.208 126.808 153.696 127.56C153.184 128.312 152.504 128.92 151.656 129.384C150.808 129.832 149.904 130.088 148.944 130.152C148.912 130.632 148.896 130.952 148.896 131.112C148.896 131.896 149.032 132.432 149.304 132.72C149.576 132.992 150.016 133.128 150.624 133.128C151.488 133.128 152.224 132.928 152.832 132.528C153.456 132.128 154.136 131.52 154.872 130.704H155.688C153.912 133.664 151.712 135.144 149.088 135.144ZM149.136 129C149.728 128.968 150.288 128.76 150.816 128.376C151.36 127.992 151.792 127.504 152.112 126.912C152.448 126.32 152.616 125.696 152.616 125.04C152.616 124.384 152.416 124.056 152.016 124.056C151.44 124.056 150.872 124.56 150.312 125.568C149.768 126.576 149.376 127.72 149.136 129ZM157.603 135.144C156.675 135.144 155.947 134.912 155.419 134.448C154.907 133.968 154.651 133.256 154.651 132.312C154.651 131.928 154.691 131.544 154.771 131.16L156.499 123H159.955L158.227 131.16C158.147 131.56 158.107 131.848 158.107 132.024C158.107 132.552 158.379 132.816 158.923 132.816C159.659 132.816 160.339 132.352 160.963 131.424C161.603 130.496 162.115 129.392 162.499 128.112C162.883 126.832 163.075 125.728 163.075 124.8C163.043 124.88 162.939 124.944 162.763 124.992C162.587 125.024 162.435 125.04 162.307 125.04C162.035 125.04 161.819 124.912 161.659 124.656C161.515 124.4 161.443 124.12 161.443 123.816C161.443 123.432 161.563 123.12 161.803 122.88C162.059 122.64 162.435 122.52 162.931 122.52C163.459 122.52 163.843 122.72 164.083 123.12C164.323 123.504 164.443 124 164.443 124.608C164.443 126.048 164.195 127.592 163.699 129.24C163.203 130.872 162.443 132.264 161.419 133.416C160.395 134.568 159.123 135.144 157.603 135.144ZM168.237 135.144C167.053 135.144 166.133 134.84 165.477 134.232C164.821 133.608 164.493 132.64 164.493 131.328C164.493 130.224 164.709 129.008 165.141 127.68C165.573 126.352 166.277 125.208 167.253 124.248C168.229 123.272 169.469 122.784 170.973 122.784C172.733 122.784 173.613 123.552 173.613 125.088C173.613 125.984 173.357 126.808 172.845 127.56C172.333 128.312 171.653 128.92 170.805 129.384C169.957 129.832 169.053 130.088 168.093 130.152C168.061 130.632 168.045 130.952 168.045 131.112C168.045 131.896 168.181 132.432 168.453 132.72C168.725 132.992 169.165 133.128 169.773 133.128C170.637 133.128 171.373 132.928 171.981 132.528C172.605 132.128 173.285 131.52 174.021 130.704H174.837C173.061 133.664 170.861 135.144 168.237 135.144ZM168.285 129C168.877 128.968 169.437 128.76 169.965 128.376C170.509 127.992 170.941 127.504 171.261 126.912C171.597 126.32 171.765 125.696 171.765 125.04C171.765 124.384 171.565 124.056 171.165 124.056C170.589 124.056 170.021 124.56 169.461 125.568C168.917 126.576 168.525 127.72 168.285 129ZM176.392 135.144C175.624 135.144 175 134.904 174.52 134.424C174.056 133.944 173.824 133.224 173.824 132.264C173.824 131.864 173.888 131.344 174.016 130.704L176.584 118.68L180.136 118.2L177.376 131.16C177.312 131.4 177.28 131.656 177.28 131.928C177.28 132.248 177.352 132.48 177.496 132.624C177.656 132.752 177.912 132.816 178.264 132.816C178.728 132.816 179.16 132.624 179.56 132.24C179.96 131.84 180.248 131.328 180.424 130.704H181.432C180.84 132.432 180.08 133.608 179.152 134.232C178.224 134.84 177.304 135.144 176.392 135.144ZM183.918 135.096C182.734 135.096 181.798 134.792 181.11 134.184C180.422 133.576 180.078 132.616 180.078 131.304C180.078 130.216 180.302 129.008 180.75 127.68C181.198 126.352 181.918 125.208 182.91 124.248C183.902 123.272 185.15 122.784 186.654 122.784C188.702 122.784 189.726 124.064 189.726 126.624V126.648C189.774 126.664 189.862 126.672 189.99 126.672C190.518 126.672 191.126 126.536 191.814 126.264C192.502 125.976 193.126 125.632 193.686 125.232L193.902 125.88C193.438 126.376 192.83 126.8 192.078 127.152C191.342 127.488 190.534 127.728 189.654 127.872C189.526 129.328 189.198 130.6 188.67 131.688C188.142 132.776 187.462 133.616 186.63 134.208C185.798 134.8 184.894 135.096 183.918 135.096ZM184.878 132.936C185.262 132.936 185.646 132.72 186.03 132.288C186.414 131.84 186.75 131.24 187.038 130.488C187.326 129.72 187.534 128.872 187.662 127.944C187.23 127.848 187.014 127.512 187.014 126.936C187.014 126.28 187.262 125.848 187.758 125.64C187.726 125.112 187.646 124.752 187.518 124.56C187.39 124.352 187.166 124.248 186.846 124.248C186.318 124.248 185.806 124.632 185.31 125.4C184.814 126.168 184.414 127.088 184.11 128.16C183.806 129.232 183.654 130.176 183.654 130.992C183.654 131.76 183.742 132.28 183.918 132.552C184.094 132.808 184.414 132.936 184.878 132.936ZM192.785 122.112H196.241L195.857 123.912C196.657 123.224 197.593 122.88 198.665 122.88C199.561 122.88 200.273 123.176 200.801 123.768C201.329 124.36 201.593 125.328 201.593 126.672C201.593 127.936 201.409 129.216 201.041 130.512C200.673 131.792 200.049 132.888 199.169 133.8C198.289 134.696 197.129 135.144 195.689 135.144C194.665 135.144 193.985 134.856 193.649 134.28L192.401 140.136L188.777 141L192.785 122.112ZM194.945 133.056C195.713 133.056 196.345 132.696 196.841 131.976C197.353 131.256 197.721 130.4 197.945 129.408C198.185 128.4 198.305 127.464 198.305 126.6C198.305 125.272 197.905 124.608 197.105 124.608C196.817 124.608 196.521 124.712 196.217 124.92C195.929 125.128 195.673 125.416 195.449 125.784L194.033 132.504C194.161 132.872 194.465 133.056 194.945 133.056ZM216.78 135.144C215.804 135.144 215.084 134.888 214.62 134.376C214.172 133.848 213.948 133.2 213.948 132.432C213.948 132.096 213.988 131.72 214.068 131.304C214.148 130.872 214.227 130.456 214.307 130.056C214.404 129.656 214.468 129.4 214.5 129.288C214.628 128.728 214.748 128.176 214.859 127.632C214.972 127.088 215.028 126.648 215.028 126.312C215.028 125.496 214.74 125.088 214.164 125.088C213.748 125.088 213.38 125.296 213.06 125.712C212.74 126.112 212.484 126.64 212.292 127.296L210.66 135H207.204L208.956 126.72C209.004 126.528 209.028 126.328 209.028 126.12C209.028 125.416 208.788 125.064 208.308 125.064C207.86 125.064 207.468 125.272 207.132 125.688C206.812 126.088 206.556 126.624 206.364 127.296L204.732 135H201.275L203.82 123H207.276L207.012 124.248C207.828 123.336 208.804 122.88 209.94 122.88C211.348 122.88 212.172 123.568 212.412 124.944C213.292 123.584 214.404 122.904 215.747 122.904C216.564 122.904 217.212 123.128 217.692 123.576C218.172 124.024 218.412 124.704 218.412 125.616C218.412 126.08 218.356 126.6 218.244 127.176C218.132 127.736 217.972 128.424 217.764 129.24C217.636 129.736 217.516 130.224 217.404 130.704C217.308 131.168 217.26 131.536 217.26 131.808C217.26 132.128 217.332 132.376 217.476 132.552C217.62 132.728 217.868 132.816 218.22 132.816C218.7 132.816 219.084 132.648 219.372 132.312C219.66 131.96 219.948 131.424 220.236 130.704H221.244C220.652 132.464 219.964 133.648 219.18 134.256C218.412 134.848 217.612 135.144 216.78 135.144ZM223.666 135.144C222.482 135.144 221.562 134.84 220.906 134.232C220.25 133.608 219.922 132.64 219.922 131.328C219.922 130.224 220.138 129.008 220.57 127.68C221.002 126.352 221.706 125.208 222.682 124.248C223.658 123.272 224.898 122.784 226.402 122.784C228.162 122.784 229.042 123.552 229.042 125.088C229.042 125.984 228.786 126.808 228.274 127.56C227.762 128.312 227.082 128.92 226.234 129.384C225.386 129.832 224.482 130.088 223.522 130.152C223.49 130.632 223.474 130.952 223.474 131.112C223.474 131.896 223.61 132.432 223.882 132.72C224.154 132.992 224.594 133.128 225.202 133.128C226.066 133.128 226.802 132.928 227.41 132.528C228.034 132.128 228.714 131.52 229.45 130.704H230.266C228.49 133.664 226.29 135.144 223.666 135.144ZM223.714 129C224.306 128.968 224.866 128.76 225.394 128.376C225.938 127.992 226.37 127.504 226.69 126.912C227.026 126.32 227.194 125.696 227.194 125.04C227.194 124.384 226.994 124.056 226.594 124.056C226.018 124.056 225.45 124.56 224.89 125.568C224.346 126.576 223.954 127.72 223.714 129ZM238.109 135.144C237.133 135.144 236.413 134.888 235.949 134.376C235.501 133.848 235.277 133.2 235.277 132.432C235.277 132.096 235.317 131.72 235.397 131.304C235.477 130.872 235.557 130.456 235.637 130.056C235.733 129.656 235.797 129.4 235.829 129.288C235.957 128.728 236.077 128.176 236.189 127.632C236.301 127.088 236.357 126.648 236.357 126.312C236.357 125.496 236.069 125.088 235.493 125.088C235.077 125.088 234.709 125.296 234.389 125.712C234.069 126.112 233.813 126.64 233.621 127.296L231.989 135H228.533L231.077 123H234.533L234.269 124.248C235.069 123.352 236.005 122.904 237.077 122.904C237.893 122.904 238.541 123.128 239.021 123.576C239.501 124.024 239.741 124.704 239.741 125.616C239.741 126.08 239.685 126.6 239.573 127.176C239.461 127.736 239.301 128.424 239.093 129.24C238.965 129.736 238.845 130.224 238.733 130.704C238.637 131.168 238.589 131.536 238.589 131.808C238.589 132.128 238.661 132.376 238.805 132.552C238.949 132.728 239.197 132.816 239.549 132.816C240.029 132.816 240.413 132.648 240.701 132.312C240.989 131.96 241.277 131.424 241.565 130.704H242.573C241.981 132.464 241.293 133.648 240.509 134.256C239.741 134.848 238.941 135.144 238.109 135.144ZM243.819 135.144C243.003 135.144 242.395 134.896 241.995 134.4C241.611 133.904 241.418 133.248 241.418 132.432C241.418 132.016 241.466 131.592 241.562 131.16L243.099 123.96H242.307L242.499 123H243.291L244.011 119.688L247.562 119.208C247.419 119.816 247.339 120.176 247.323 120.288C247.211 120.736 247.019 121.64 246.747 123H248.187L247.995 123.96H246.555L245.019 131.16C244.939 131.512 244.899 131.792 244.899 132C244.899 132.576 245.179 132.864 245.739 132.864C246.027 132.864 246.235 132.84 246.363 132.792C246.043 133.72 245.667 134.344 245.235 134.664C244.803 134.984 244.331 135.144 243.819 135.144ZM74.344 170.688C73.144 169.472 72.216 168.032 71.56 166.368C70.92 164.72 70.6 162.952 70.6 161.064C70.6 159.048 70.96 157.104 71.68 155.232C72.416 153.36 73.456 151.68 74.8 150.192C76.144 148.704 77.696 147.536 79.456 146.688L79.768 147.648C78.52 148.384 77.408 149.496 76.432 150.984C75.456 152.472 74.696 154.192 74.152 156.144C73.608 158.096 73.336 160.104 73.336 162.168C73.336 163.688 73.488 165.112 73.792 166.44C74.096 167.784 74.544 168.968 75.136 169.992L74.344 170.688ZM82.7086 167.736C82.1166 167.736 81.5966 167.688 81.1486 167.592C80.7006 167.496 80.3086 167.264 79.9726 166.896C79.6526 166.528 79.4926 165.96 79.4926 165.192C79.4926 164.12 79.8126 162.68 80.4526 160.872C81.1086 159.064 81.9646 157.248 83.0206 155.424C82.2206 155.472 81.5886 155.592 81.1246 155.784C80.6606 155.976 80.3566 156.272 80.2126 156.672C80.2766 156.672 80.3406 156.752 80.4046 156.912C80.4846 157.072 80.5246 157.24 80.5246 157.416C80.5246 157.704 80.3966 157.936 80.1406 158.112C79.8846 158.272 79.5646 158.352 79.1806 158.352C78.7326 158.352 78.3726 158.232 78.1006 157.992C77.8286 157.752 77.6926 157.408 77.6926 156.96C77.6926 156.416 77.9006 155.92 78.3166 155.472C78.7486 155.024 79.3406 154.672 80.0926 154.416C80.8446 154.144 81.6766 154.008 82.5886 154.008C82.9246 154.008 83.3406 154.032 83.8366 154.08C85.1486 152 86.5326 150.304 87.9886 148.992C89.4606 147.664 90.8606 147 92.1886 147C92.9566 147 93.5886 147.112 94.0846 147.336L90.3166 165H86.8606L88.7086 156.288C88.1166 156.016 87.5726 155.816 87.0766 155.688C86.5806 155.56 86.0526 155.472 85.4926 155.424C84.5806 157.392 83.8286 159.408 83.2366 161.472C82.6606 163.52 82.3726 165.16 82.3726 166.392C82.3726 167 82.4846 167.448 82.7086 167.736ZM90.3166 148.704C89.6286 149.072 88.9086 149.76 88.1566 150.768C87.4206 151.76 86.7006 152.968 85.9966 154.392C87.1486 154.616 88.1246 154.896 88.9246 155.232L90.3166 148.704ZM102.172 165.144C101.196 165.144 100.476 164.888 100.012 164.376C99.5638 163.848 99.3398 163.2 99.3398 162.432C99.3398 162.096 99.3798 161.72 99.4598 161.304C99.5398 160.872 99.6198 160.456 99.6998 160.056C99.7958 159.656 99.8598 159.4 99.8918 159.288C100.02 158.728 100.14 158.176 100.252 157.632C100.364 157.088 100.42 156.648 100.42 156.312C100.42 155.496 100.132 155.088 99.5558 155.088C99.1398 155.088 98.7718 155.296 98.4518 155.712C98.1318 156.112 97.8758 156.64 97.6838 157.296L96.0518 165H92.5958L95.1398 153H98.5958L98.3318 154.248C99.1318 153.352 100.068 152.904 101.14 152.904C101.956 152.904 102.604 153.128 103.084 153.576C103.564 154.024 103.804 154.704 103.804 155.616C103.804 156.08 103.748 156.6 103.636 157.176C103.524 157.736 103.364 158.424 103.156 159.24C103.028 159.736 102.908 160.224 102.796 160.704C102.7 161.168 102.652 161.536 102.652 161.808C102.652 162.128 102.724 162.376 102.868 162.552C103.012 162.728 103.26 162.816 103.612 162.816C104.092 162.816 104.476 162.648 104.764 162.312C105.052 161.96 105.34 161.424 105.628 160.704H106.636C106.044 162.464 105.356 163.648 104.572 164.256C103.804 164.848 103.004 165.144 102.172 165.144ZM108.505 165.144C107.593 165.144 106.833 164.832 106.225 164.208C105.617 163.584 105.313 162.608 105.313 161.28C105.313 160.096 105.545 158.856 106.009 157.56C106.489 156.248 107.193 155.144 108.121 154.248C109.065 153.336 110.185 152.88 111.481 152.88C112.137 152.88 112.625 152.992 112.945 153.216C113.265 153.44 113.425 153.736 113.425 154.104V154.2L114.601 148.68L118.153 148.2L115.393 161.16C115.329 161.4 115.297 161.656 115.297 161.928C115.297 162.248 115.369 162.48 115.513 162.624C115.673 162.752 115.929 162.816 116.281 162.816C116.729 162.816 117.113 162.624 117.433 162.24C117.769 161.856 118.033 161.344 118.225 160.704H119.233C118.257 163.568 116.649 165 114.409 165C113.753 165 113.217 164.824 112.801 164.472C112.401 164.12 112.153 163.608 112.057 162.936C111.641 163.576 111.137 164.104 110.545 164.52C109.969 164.936 109.289 165.144 108.505 165.144ZM110.065 162.816C110.449 162.816 110.833 162.64 111.217 162.288C111.617 161.936 111.889 161.448 112.033 160.824V160.704L113.209 155.208C113.065 154.648 112.737 154.368 112.225 154.368C111.585 154.368 111.009 154.744 110.497 155.496C109.985 156.232 109.585 157.128 109.297 158.184C109.009 159.224 108.865 160.144 108.865 160.944C108.865 161.744 108.977 162.256 109.201 162.48C109.441 162.704 109.729 162.816 110.065 162.816ZM119.866 153H123.322L123.01 154.488C123.554 154.008 124.042 153.64 124.474 153.384C124.922 153.128 125.402 153 125.914 153C126.426 153 126.826 153.176 127.114 153.528C127.418 153.88 127.57 154.304 127.57 154.8C127.57 155.264 127.418 155.672 127.114 156.024C126.81 156.376 126.386 156.552 125.842 156.552C125.49 156.552 125.25 156.472 125.122 156.312C125.01 156.136 124.922 155.888 124.858 155.568C124.81 155.36 124.762 155.208 124.714 155.112C124.666 155.016 124.578 154.968 124.45 154.968C124.114 154.968 123.826 155.04 123.586 155.184C123.362 155.312 123.066 155.544 122.698 155.88L120.778 165H117.322L119.866 153ZM130.762 165.096C129.578 165.096 128.642 164.792 127.954 164.184C127.266 163.576 126.922 162.616 126.922 161.304C126.922 160.216 127.146 159.008 127.594 157.68C128.042 156.352 128.762 155.208 129.754 154.248C130.746 153.272 131.994 152.784 133.498 152.784C135.546 152.784 136.57 154.064 136.57 156.624V156.648C136.618 156.664 136.706 156.672 136.834 156.672C137.362 156.672 137.97 156.536 138.658 156.264C139.346 155.976 139.97 155.632 140.53 155.232L140.746 155.88C140.282 156.376 139.674 156.8 138.922 157.152C138.186 157.488 137.378 157.728 136.498 157.872C136.37 159.328 136.042 160.6 135.514 161.688C134.986 162.776 134.306 163.616 133.474 164.208C132.642 164.8 131.738 165.096 130.762 165.096ZM131.722 162.936C132.106 162.936 132.49 162.72 132.874 162.288C133.258 161.84 133.594 161.24 133.882 160.488C134.17 159.72 134.378 158.872 134.506 157.944C134.074 157.848 133.858 157.512 133.858 156.936C133.858 156.28 134.106 155.848 134.602 155.64C134.57 155.112 134.49 154.752 134.362 154.56C134.234 154.352 134.01 154.248 133.69 154.248C133.162 154.248 132.65 154.632 132.154 155.4C131.658 156.168 131.258 157.088 130.954 158.16C130.65 159.232 130.498 160.176 130.498 160.992C130.498 161.76 130.586 162.28 130.762 162.552C130.938 162.808 131.258 162.936 131.722 162.936ZM141.813 151.704C141.285 151.704 140.837 151.52 140.469 151.152C140.101 150.784 139.917 150.336 139.917 149.808C139.917 149.28 140.101 148.832 140.469 148.464C140.837 148.08 141.285 147.888 141.813 147.888C142.341 147.888 142.789 148.08 143.157 148.464C143.541 148.832 143.733 149.28 143.733 149.808C143.733 150.336 143.541 150.784 143.157 151.152C142.789 151.52 142.341 151.704 141.813 151.704ZM140.181 165.144C139.413 165.144 138.789 164.904 138.309 164.424C137.845 163.944 137.613 163.224 137.613 162.264C137.613 161.864 137.677 161.344 137.805 160.704L139.437 153H142.893L141.165 161.16C141.101 161.4 141.069 161.656 141.069 161.928C141.069 162.248 141.141 162.48 141.285 162.624C141.445 162.752 141.701 162.816 142.053 162.816C142.517 162.816 142.949 162.624 143.349 162.24C143.749 161.84 144.037 161.328 144.213 160.704H145.221C144.629 162.432 143.869 163.608 142.941 164.232C142.013 164.84 141.093 165.144 140.181 165.144ZM147.083 165.144C146.171 165.144 145.411 164.832 144.803 164.208C144.195 163.584 143.891 162.608 143.891 161.28C143.891 160.096 144.123 158.856 144.587 157.56C145.067 156.248 145.771 155.144 146.699 154.248C147.643 153.336 148.763 152.88 150.059 152.88C150.715 152.88 151.203 152.992 151.523 153.216C151.843 153.44 152.003 153.736 152.003 154.104V154.2L153.179 148.68L156.731 148.2L153.971 161.16C153.907 161.4 153.875 161.632 153.875 161.856C153.875 162.496 154.203 162.816 154.859 162.816C155.147 162.816 155.403 162.768 155.627 162.672C155.563 163.472 155.275 164.088 154.763 164.52C154.267 164.936 153.675 165.144 152.987 165.144C152.347 165.144 151.803 164.984 151.355 164.664C150.923 164.328 150.635 163.824 150.491 163.152C149.531 164.48 148.395 165.144 147.083 165.144ZM148.643 162.816C148.995 162.816 149.347 162.664 149.699 162.36C150.067 162.056 150.339 161.632 150.515 161.088L150.611 160.704L151.787 155.208C151.643 154.648 151.315 154.368 150.803 154.368C150.163 154.368 149.587 154.744 149.075 155.496C148.563 156.232 148.163 157.128 147.875 158.184C147.587 159.224 147.443 160.144 147.443 160.944C147.443 161.744 147.555 162.256 147.779 162.48C148.019 162.704 148.307 162.816 148.643 162.816ZM163.7 165.144C162.788 165.144 162.028 164.832 161.42 164.208C160.812 163.584 160.508 162.608 160.508 161.28C160.508 160.096 160.74 158.856 161.204 157.56C161.684 156.248 162.388 155.144 163.316 154.248C164.26 153.336 165.38 152.88 166.676 152.88C167.332 152.88 167.82 152.992 168.14 153.216C168.46 153.44 168.62 153.736 168.62 154.104V154.272L168.884 153H172.34L170.612 161.16C170.548 161.4 170.516 161.656 170.516 161.928C170.516 162.616 170.844 162.96 171.5 162.96C171.948 162.96 172.332 162.752 172.652 162.336C172.988 161.92 173.252 161.376 173.444 160.704H174.452C173.86 162.432 173.124 163.608 172.244 164.232C171.38 164.84 170.508 165.144 169.628 165.144C168.956 165.144 168.412 164.96 167.996 164.592C167.596 164.208 167.356 163.656 167.276 162.936C166.812 163.592 166.292 164.128 165.716 164.544C165.156 164.944 164.484 165.144 163.7 165.144ZM165.26 162.816C165.66 162.816 166.052 162.632 166.436 162.264C166.836 161.88 167.108 161.36 167.252 160.704L168.404 155.28C168.404 155.072 168.324 154.872 168.164 154.68C168.004 154.472 167.756 154.368 167.42 154.368C166.78 154.368 166.204 154.744 165.692 155.496C165.18 156.232 164.78 157.128 164.492 158.184C164.204 159.224 164.06 160.144 164.06 160.944C164.06 161.744 164.172 162.256 164.396 162.48C164.636 162.704 164.924 162.816 165.26 162.816ZM182.117 165.144C181.141 165.144 180.421 164.888 179.957 164.376C179.509 163.848 179.285 163.2 179.285 162.432C179.285 162.096 179.325 161.72 179.405 161.304C179.485 160.872 179.565 160.456 179.645 160.056C179.741 159.656 179.805 159.4 179.837 159.288C179.965 158.728 180.085 158.176 180.197 157.632C180.309 157.088 180.365 156.648 180.365 156.312C180.365 155.496 180.077 155.088 179.501 155.088C179.085 155.088 178.717 155.296 178.397 155.712C178.077 156.112 177.821 156.64 177.629 157.296L175.997 165H172.541L175.085 153H178.541L178.277 154.248C179.077 153.352 180.013 152.904 181.085 152.904C181.901 152.904 182.549 153.128 183.029 153.576C183.509 154.024 183.749 154.704 183.749 155.616C183.749 156.08 183.693 156.6 183.581 157.176C183.469 157.736 183.309 158.424 183.101 159.24C182.973 159.736 182.853 160.224 182.741 160.704C182.645 161.168 182.597 161.536 182.597 161.808C182.597 162.128 182.669 162.376 182.813 162.552C182.957 162.728 183.205 162.816 183.557 162.816C184.037 162.816 184.421 162.648 184.709 162.312C184.997 161.96 185.285 161.424 185.573 160.704H186.581C185.989 162.464 185.301 163.648 184.517 164.256C183.749 164.848 182.949 165.144 182.117 165.144ZM188.45 165.144C187.538 165.144 186.778 164.832 186.17 164.208C185.562 163.584 185.258 162.608 185.258 161.28C185.258 160.096 185.49 158.856 185.954 157.56C186.434 156.248 187.138 155.144 188.066 154.248C189.01 153.336 190.13 152.88 191.426 152.88C192.082 152.88 192.57 152.992 192.89 153.216C193.21 153.44 193.37 153.736 193.37 154.104V154.2L194.546 148.68L198.098 148.2L195.338 161.16C195.274 161.4 195.242 161.632 195.242 161.856C195.242 162.496 195.57 162.816 196.226 162.816C196.514 162.816 196.77 162.768 196.994 162.672C196.93 163.472 196.642 164.088 196.13 164.52C195.634 164.936 195.042 165.144 194.354 165.144C193.714 165.144 193.17 164.984 192.722 164.664C192.29 164.328 192.002 163.824 191.858 163.152C190.898 164.48 189.762 165.144 188.45 165.144ZM190.01 162.816C190.362 162.816 190.714 162.664 191.066 162.36C191.434 162.056 191.706 161.632 191.882 161.088L191.978 160.704L193.154 155.208C193.01 154.648 192.682 154.368 192.17 154.368C191.53 154.368 190.954 154.744 190.442 155.496C189.93 156.232 189.53 157.128 189.242 158.184C188.954 159.224 188.81 160.144 188.81 160.944C188.81 161.744 188.922 162.256 189.146 162.48C189.386 162.704 189.674 162.816 190.01 162.816ZM207.924 148.704C206.852 149.136 206.02 149.8 205.428 150.696C204.852 151.576 204.564 152.656 204.564 153.936C204.564 154.528 204.62 154.944 204.732 155.184C204.844 155.408 204.9 155.536 204.9 155.568C204.036 155.568 203.388 155.392 202.956 155.04C202.54 154.672 202.332 154.072 202.332 153.24C202.332 152.216 202.748 151.224 203.58 150.264C204.428 149.288 205.508 148.504 206.82 147.912C208.132 147.304 209.444 147 210.756 147C210.98 147 211.3 147.016 211.716 147.048L207.9 165H204.444L207.924 148.704ZM224.196 165.144C222.916 165.144 222.036 164.84 221.556 164.232C221.092 163.624 220.86 162.864 220.86 161.952C220.86 161.28 221.036 160.736 221.388 160.32C221.74 159.888 222.14 159.672 222.588 159.672C223.42 159.672 223.836 160.008 223.836 160.68C223.836 160.968 223.724 161.224 223.5 161.448C223.276 161.656 223.004 161.76 222.684 161.76C222.348 161.76 222.132 161.656 222.036 161.448C222.036 162.024 222.148 162.472 222.372 162.792C222.612 163.096 222.964 163.248 223.428 163.248C223.972 163.248 224.356 163.088 224.58 162.768C224.82 162.432 224.94 161.848 224.94 161.016C224.94 160.536 224.892 159.928 224.796 159.192C224.636 157.656 224.508 156.088 224.411 154.488C223.276 156.232 221.932 157.336 220.38 157.8C220.284 159.272 219.972 160.56 219.444 161.664C218.916 162.768 218.236 163.616 217.404 164.208C216.588 164.8 215.684 165.096 214.692 165.096C213.508 165.096 212.572 164.792 211.884 164.184C211.196 163.576 210.851 162.616 210.851 161.304C210.851 160.2 211.067 158.992 211.5 157.68C211.932 156.352 212.636 155.208 213.612 154.248C214.588 153.272 215.836 152.784 217.355 152.784C219.388 152.784 220.412 154.04 220.428 156.552C221.612 156.488 222.916 155.216 224.34 152.736L227.892 152.256C227.972 154.304 228.108 156.52 228.3 158.904C228.38 159.864 228.42 160.56 228.42 160.992C228.42 162.432 228.004 163.488 227.172 164.16C226.34 164.816 225.348 165.144 224.196 165.144ZM215.652 162.936C216.244 162.936 216.796 162.464 217.308 161.52C217.82 160.56 218.172 159.376 218.364 157.968C217.98 157.824 217.788 157.464 217.788 156.888C217.788 156.264 218.012 155.848 218.46 155.64C218.428 155.128 218.34 154.768 218.196 154.56C218.068 154.352 217.852 154.248 217.548 154.248C217.02 154.248 216.516 154.632 216.036 155.4C215.556 156.152 215.164 157.072 214.86 158.16C214.572 159.232 214.428 160.176 214.428 160.992C214.428 161.76 214.516 162.28 214.692 162.552C214.868 162.808 215.188 162.936 215.652 162.936ZM226.782 169.728C228.03 168.992 229.142 167.88 230.118 166.392C231.094 164.904 231.854 163.184 232.398 161.232C232.942 159.28 233.214 157.272 233.214 155.208C233.214 153.688 233.062 152.264 232.758 150.936C232.454 149.592 232.006 148.408 231.414 147.384L232.206 146.688C233.406 147.904 234.326 149.344 234.966 151.008C235.606 152.656 235.926 154.424 235.926 156.312C235.926 158.328 235.558 160.272 234.822 162.144C234.102 164.016 233.07 165.688 231.726 167.16C230.398 168.648 228.854 169.824 227.094 170.688L226.782 169.728Z" fill="#BB9F9F"/>
<path d="M251.832 354.312C250.872 354.312 249.896 353.888 248.904 353.04L248.712 354H245.256L248.52 338.736L252.072 338.256L249.192 351.72C249.64 352.04 250.096 352.2 250.56 352.2C251.472 352.2 252.272 351.672 252.96 350.616C253.664 349.56 254.208 348.216 254.592 346.584C254.976 344.952 255.168 343.304 255.168 341.64C255.168 340.072 254.856 338.928 254.232 338.208C253.624 337.472 252.768 337.104 251.664 337.104C250.464 337.104 249.384 337.344 248.424 337.824C247.48 338.288 246.736 338.96 246.192 339.84C245.648 340.72 245.376 341.752 245.376 342.936C245.376 343.528 245.432 343.944 245.544 344.184C245.656 344.408 245.712 344.536 245.712 344.568C244.88 344.568 244.24 344.392 243.792 344.04C243.36 343.688 243.144 343.12 243.144 342.336C243.144 341.248 243.552 340.216 244.368 339.24C245.184 338.264 246.272 337.48 247.632 336.888C249.008 336.296 250.488 336 252.072 336C254.264 336 255.88 336.648 256.92 337.944C257.96 339.24 258.48 340.896 258.48 342.912C258.48 344.736 258.168 346.536 257.544 348.312C256.936 350.072 256.12 351.512 255.096 352.632C254.072 353.752 252.984 354.312 251.832 354.312ZM261.794 354.144C260.882 354.144 260.122 353.832 259.514 353.208C258.906 352.584 258.602 351.608 258.602 350.28C258.602 349.096 258.834 347.856 259.298 346.56C259.778 345.248 260.482 344.144 261.41 343.248C262.354 342.336 263.474 341.88 264.77 341.88C265.426 341.88 265.914 341.992 266.234 342.216C266.554 342.44 266.714 342.736 266.714 343.104V343.272L266.978 342H270.434L268.706 350.16C268.642 350.4 268.61 350.656 268.61 350.928C268.61 351.616 268.938 351.96 269.594 351.96C270.042 351.96 270.426 351.752 270.746 351.336C271.082 350.92 271.346 350.376 271.538 349.704H272.546C271.954 351.432 271.218 352.608 270.338 353.232C269.474 353.84 268.602 354.144 267.722 354.144C267.05 354.144 266.506 353.96 266.09 353.592C265.69 353.208 265.45 352.656 265.37 351.936C264.906 352.592 264.386 353.128 263.81 353.544C263.25 353.944 262.578 354.144 261.794 354.144ZM263.354 351.816C263.754 351.816 264.146 351.632 264.53 351.264C264.93 350.88 265.202 350.36 265.346 349.704L266.498 344.28C266.498 344.072 266.418 343.872 266.258 343.68C266.098 343.472 265.85 343.368 265.514 343.368C264.874 343.368 264.298 343.744 263.786 344.496C263.274 345.232 262.874 346.128 262.586 347.184C262.298 348.224 262.154 349.144 262.154 349.944C262.154 350.744 262.266 351.256 262.49 351.48C262.73 351.704 263.018 351.816 263.354 351.816ZM273.923 354.144C273.155 354.144 272.531 353.904 272.051 353.424C271.587 352.944 271.355 352.224 271.355 351.264C271.355 350.864 271.419 350.344 271.547 349.704L272.987 342.96H272.195L272.387 342H273.179L273.899 338.688L277.451 338.208L276.635 342H278.075L277.883 342.96H276.443L274.907 350.16C274.843 350.4 274.811 350.656 274.811 350.928C274.811 351.248 274.883 351.48 275.027 351.624C275.187 351.752 275.443 351.816 275.795 351.816C276.259 351.816 276.691 351.624 277.091 351.24C277.491 350.84 277.779 350.328 277.955 349.704H278.963C278.371 351.432 277.611 352.608 276.683 353.232C275.755 353.84 274.835 354.144 273.923 354.144ZM280.825 354.144C279.913 354.144 279.153 353.832 278.545 353.208C277.937 352.584 277.633 351.608 277.633 350.28C277.633 349.096 277.865 347.856 278.329 346.56C278.809 345.248 279.513 344.144 280.441 343.248C281.385 342.336 282.505 341.88 283.801 341.88C284.457 341.88 284.945 341.992 285.265 342.216C285.585 342.44 285.745 342.736 285.745 343.104V343.272L286.009 342H289.465L287.737 350.16C287.673 350.4 287.641 350.656 287.641 350.928C287.641 351.248 287.713 351.48 287.857 351.624C288.017 351.752 288.273 351.816 288.625 351.816C288.849 351.816 289.025 351.784 289.153 351.72C288.801 352.616 288.465 353.248 288.145 353.616C287.825 353.968 287.361 354.144 286.753 354.144C286.097 354.144 285.561 353.952 285.145 353.568C284.745 353.168 284.497 352.616 284.401 351.912C283.425 353.4 282.233 354.144 280.825 354.144ZM282.385 351.816C282.785 351.816 283.177 351.632 283.561 351.264C283.961 350.88 284.233 350.36 284.377 349.704L285.529 344.28C285.529 344.072 285.449 343.872 285.289 343.68C285.129 343.472 284.881 343.368 284.545 343.368C283.905 343.368 283.329 343.744 282.817 344.496C282.305 345.232 281.905 346.128 281.617 347.184C281.329 348.224 281.185 349.144 281.185 349.944C281.185 350.744 281.297 351.256 281.521 351.48C281.761 351.704 282.049 351.816 282.385 351.816ZM300.232 354.432C299.224 354.432 298.336 354.256 297.568 353.904C296.8 353.552 296.208 353.064 295.792 352.44C295.376 351.8 295.168 351.064 295.168 350.232C295.168 349.528 295.312 348.888 295.6 348.312C295.904 347.736 296.304 347.28 296.8 346.944C297.312 346.608 297.872 346.44 298.48 346.44C299.04 346.44 299.512 346.584 299.896 346.872C300.28 347.144 300.52 347.528 300.616 348.024C299.784 348.024 299.12 348.248 298.624 348.696C298.128 349.128 297.88 349.72 297.88 350.472C297.88 351.16 298.088 351.712 298.504 352.128C298.92 352.544 299.472 352.752 300.16 352.752C301.008 352.752 301.704 352.472 302.248 351.912C302.808 351.336 303.088 350.616 303.088 349.752C303.088 349 302.88 348.288 302.464 347.616C302.048 346.944 301.424 346.128 300.592 345.168C299.728 344.176 299.072 343.328 298.624 342.624C298.192 341.904 297.976 341.12 297.976 340.272C297.976 339.44 298.208 338.696 298.672 338.04C299.136 337.368 299.776 336.84 300.592 336.456C301.408 336.072 302.328 335.88 303.352 335.88C304.648 335.88 305.68 336.184 306.448 336.792C307.232 337.4 307.624 338.216 307.624 339.24C307.624 339.912 307.456 340.456 307.12 340.872C306.784 341.288 306.344 341.496 305.8 341.496C305.192 341.496 304.704 341.248 304.336 340.752C304.64 340.528 304.88 340.232 305.056 339.864C305.232 339.496 305.32 339.112 305.32 338.712C305.32 338.2 305.168 337.792 304.864 337.488C304.56 337.184 304.144 337.032 303.616 337.032C302.976 337.032 302.448 337.264 302.032 337.728C301.632 338.176 301.432 338.752 301.432 339.456C301.432 340.096 301.616 340.696 301.984 341.256C302.352 341.8 302.928 342.504 303.712 343.368C304.352 344.056 304.864 344.648 305.248 345.144C305.648 345.64 305.984 346.216 306.256 346.872C306.544 347.512 306.688 348.208 306.688 348.96C306.688 349.984 306.4 350.912 305.824 351.744C305.264 352.576 304.488 353.232 303.496 353.712C302.52 354.192 301.432 354.432 300.232 354.432ZM311.471 354.144C310.287 354.144 309.367 353.84 308.711 353.232C308.055 352.608 307.727 351.64 307.727 350.328C307.727 349.224 307.943 348.008 308.375 346.68C308.823 345.352 309.527 344.208 310.487 343.248C311.463 342.272 312.695 341.784 314.183 341.784C315.143 341.784 315.823 341.992 316.223 342.408C316.639 342.824 316.847 343.352 316.847 343.992C316.847 344.552 316.727 344.984 316.487 345.288C316.247 345.592 315.943 345.744 315.575 345.744C315.303 345.744 315.023 345.648 314.735 345.456C314.927 344.928 315.023 344.456 315.023 344.04C315.023 343.736 314.967 343.496 314.855 343.32C314.743 343.144 314.575 343.056 314.351 343.056C313.871 343.056 313.391 343.448 312.911 344.232C312.431 345.016 312.039 345.968 311.735 347.088C311.431 348.208 311.279 349.216 311.279 350.112C311.279 350.896 311.415 351.432 311.687 351.72C311.959 351.992 312.399 352.128 313.007 352.128C313.871 352.128 314.607 351.928 315.215 351.528C315.839 351.128 316.519 350.52 317.255 349.704H318.071C316.295 352.664 314.095 354.144 311.471 354.144ZM321.258 340.704C320.73 340.704 320.282 340.52 319.914 340.152C319.546 339.784 319.362 339.336 319.362 338.808C319.362 338.28 319.546 337.832 319.914 337.464C320.282 337.08 320.73 336.888 321.258 336.888C321.786 336.888 322.234 337.08 322.602 337.464C322.986 337.832 323.178 338.28 323.178 338.808C323.178 339.336 322.986 339.784 322.602 340.152C322.234 340.52 321.786 340.704 321.258 340.704ZM319.626 354.144C318.858 354.144 318.234 353.904 317.754 353.424C317.29 352.944 317.058 352.224 317.058 351.264C317.058 350.864 317.122 350.344 317.25 349.704L318.882 342H322.338L320.61 350.16C320.546 350.4 320.514 350.656 320.514 350.928C320.514 351.248 320.586 351.48 320.73 351.624C320.89 351.752 321.146 351.816 321.498 351.816C321.962 351.816 322.394 351.624 322.794 351.24C323.194 350.84 323.482 350.328 323.658 349.704H324.666C324.074 351.432 323.314 352.608 322.386 353.232C321.458 353.84 320.538 354.144 319.626 354.144ZM327.08 354.144C325.896 354.144 324.976 353.84 324.32 353.232C323.664 352.608 323.336 351.64 323.336 350.328C323.336 349.224 323.552 348.008 323.984 346.68C324.416 345.352 325.12 344.208 326.096 343.248C327.072 342.272 328.312 341.784 329.816 341.784C331.576 341.784 332.456 342.552 332.456 344.088C332.456 344.984 332.2 345.808 331.688 346.56C331.176 347.312 330.496 347.92 329.648 348.384C328.8 348.832 327.896 349.088 326.936 349.152C326.904 349.632 326.888 349.952 326.888 350.112C326.888 350.896 327.024 351.432 327.296 351.72C327.568 351.992 328.008 352.128 328.616 352.128C329.48 352.128 330.216 351.928 330.824 351.528C331.448 351.128 332.128 350.52 332.864 349.704H333.68C331.904 352.664 329.704 354.144 327.08 354.144ZM327.128 348C327.72 347.968 328.28 347.76 328.808 347.376C329.352 346.992 329.784 346.504 330.104 345.912C330.44 345.32 330.608 344.696 330.608 344.04C330.608 343.384 330.408 343.056 330.008 343.056C329.432 343.056 328.864 343.56 328.304 344.568C327.76 345.576 327.368 346.72 327.128 348ZM341.523 354.144C340.547 354.144 339.827 353.888 339.363 353.376C338.915 352.848 338.691 352.2 338.691 351.432C338.691 351.096 338.731 350.72 338.811 350.304C338.891 349.872 338.971 349.456 339.051 349.056C339.147 348.656 339.211 348.4 339.243 348.288C339.371 347.728 339.491 347.176 339.603 346.632C339.715 346.088 339.771 345.648 339.771 345.312C339.771 344.496 339.483 344.088 338.907 344.088C338.491 344.088 338.123 344.296 337.803 344.712C337.483 345.112 337.227 345.64 337.035 346.296L335.403 354H331.947L334.491 342H337.947L337.683 343.248C338.483 342.352 339.419 341.904 340.491 341.904C341.307 341.904 341.955 342.128 342.435 342.576C342.915 343.024 343.155 343.704 343.155 344.616C343.155 345.08 343.099 345.6 342.987 346.176C342.875 346.736 342.715 347.424 342.507 348.24C342.379 348.736 342.259 349.224 342.147 349.704C342.051 350.168 342.003 350.536 342.003 350.808C342.003 351.128 342.075 351.376 342.219 351.552C342.363 351.728 342.611 351.816 342.963 351.816C343.443 351.816 343.827 351.648 344.115 351.312C344.403 350.96 344.691 350.424 344.979 349.704H345.987C345.395 351.464 344.707 352.648 343.923 353.256C343.155 353.848 342.355 354.144 341.523 354.144ZM347.353 354.144C346.585 354.144 345.961 353.904 345.481 353.424C345.017 352.944 344.785 352.224 344.785 351.264C344.785 350.864 344.849 350.344 344.977 349.704L346.417 342.96H345.625L345.817 342H346.609L347.329 338.688L350.881 338.208L350.065 342H351.505L351.313 342.96H349.873L348.337 350.16C348.273 350.4 348.241 350.656 348.241 350.928C348.241 351.248 348.313 351.48 348.457 351.624C348.617 351.752 348.873 351.816 349.225 351.816C349.689 351.816 350.121 351.624 350.521 351.24C350.921 350.84 351.209 350.328 351.385 349.704H352.393C351.801 351.432 351.041 352.608 350.113 353.232C349.185 353.84 348.265 354.144 347.353 354.144ZM355.383 340.704C354.855 340.704 354.407 340.52 354.039 340.152C353.671 339.784 353.487 339.336 353.487 338.808C353.487 338.28 353.671 337.832 354.039 337.464C354.407 337.08 354.855 336.888 355.383 336.888C355.911 336.888 356.359 337.08 356.727 337.464C357.111 337.832 357.303 338.28 357.303 338.808C357.303 339.336 357.111 339.784 356.727 340.152C356.359 340.52 355.911 340.704 355.383 340.704ZM353.751 354.144C352.983 354.144 352.359 353.904 351.879 353.424C351.415 352.944 351.183 352.224 351.183 351.264C351.183 350.864 351.247 350.344 351.375 349.704L353.007 342H356.463L354.735 350.16C354.671 350.4 354.639 350.656 354.639 350.928C354.639 351.248 354.711 351.48 354.855 351.624C355.015 351.752 355.271 351.816 355.623 351.816C356.087 351.816 356.519 351.624 356.919 351.24C357.319 350.84 357.607 350.328 357.783 349.704H358.791C358.199 351.432 357.439 352.608 356.511 353.232C355.583 353.84 354.663 354.144 353.751 354.144ZM360.509 354.144C359.741 354.144 359.093 354 358.565 353.712C358.037 353.408 357.645 353.024 357.389 352.56C357.133 352.08 357.005 351.584 357.005 351.072C357.005 350.544 357.133 350.088 357.389 349.704C357.629 349.304 357.925 349.016 358.277 348.84C358.901 347.72 359.445 346.592 359.909 345.456C360.373 344.304 360.813 343.064 361.229 341.736L364.781 341.256C364.861 343.304 364.997 345.52 365.189 347.904C365.269 348.864 365.309 349.56 365.309 349.992C365.309 350.36 365.277 350.664 365.213 350.904C365.965 350.472 366.541 350.072 366.941 349.704H367.949C366.925 350.888 365.701 351.888 364.277 352.704C363.813 353.2 363.237 353.568 362.549 353.808C361.877 354.032 361.197 354.144 360.509 354.144ZM359.741 352.248C360.333 352.248 360.829 352.072 361.229 351.72C361.629 351.368 361.829 350.8 361.829 350.016C361.829 349.536 361.781 348.864 361.685 348C361.525 346.176 361.421 344.952 361.373 344.328C360.989 345.592 360.341 347.104 359.429 348.864C359.797 349.056 359.981 349.336 359.981 349.704C359.981 350.008 359.877 350.28 359.669 350.52C359.477 350.76 359.229 350.88 358.925 350.88C358.589 350.88 358.373 350.776 358.277 350.568C358.277 351.144 358.389 351.568 358.613 351.84C358.853 352.112 359.229 352.248 359.741 352.248ZM369.194 354.144C368.378 354.144 367.77 353.896 367.37 353.4C366.986 352.904 366.793 352.248 366.793 351.432C366.793 351.016 366.841 350.592 366.938 350.16L368.474 342.96H367.682L367.874 342H368.666L369.386 338.688L372.938 338.208C372.794 338.816 372.714 339.176 372.698 339.288C372.586 339.736 372.394 340.64 372.122 342H373.562L373.37 342.96H371.93L370.394 350.16C370.314 350.512 370.274 350.792 370.274 351C370.274 351.576 370.554 351.864 371.114 351.864C371.402 351.864 371.61 351.84 371.738 351.792C371.418 352.72 371.042 353.344 370.61 353.664C370.178 353.984 369.706 354.144 369.194 354.144Z" fill="#641E1E"/>
</svg>
